<svg width="160px" height="160px" version="1.1" xmlns="http://www.w3.org/2000/svg" xmlns:xlink="http://www.w3.org/1999/xlink"><g stroke="none" stroke-width="1" fill="none" fill-rule="evenodd"><g transform="translate(32, 20)" fill="#0091FF" fill-rule="nonzero"><g><path d="M84.6153846,43.1904762 L80.7692308,43.1904762 L80.7692308,31.047619 C80.7692308,28.8133333 79.05,27 76.9230769,27 L3.84615385,27 C1.72307692,27 0,28.8133333 0,31.047619 C0,33.2819048 1.72307692,35.0952381 3.84615385,35.0952381 L73.0769231,35.0952381 L73.0769231,83.6666667 C73.0769231,94.8259524 64.45,103.904762 53.8461538,103.904762 L26.9230769,103.904762 C16.3192308,103.904762 7.69230769,94.8259524 7.69230769,83.6666667 L7.69230769,47.2380952 C7.69230769,45.0038095 5.96923077,43.1904762 3.84615385,43.1904762 C1.72307692,43.1904762 0,45.0038095 0,47.2380952 L0,83.6666667 C0,99.2864286 12.0769231,112 26.9230769,112 L53.8461538,112 C68.6884615,112 80.7692308,99.2864286 80.7692308,83.6666667 L80.7692308,79.6190476 L84.6153846,79.6190476 C93.1,79.6190476 100,72.357619 100,63.4285714 L100,59.3809524 C100,50.4519048 93.1,43.1904762 84.6153846,43.1904762 Z M92.3076923,63.4285714 C92.3076923,67.8930952 88.8576923,71.5238095 84.6153846,71.5238095 L80.7692308,71.5238095 L80.7692308,51.2857143 L84.6153846,51.2857143 C88.8576923,51.2857143 92.3076923,54.9164286 92.3076923,59.3809524 L92.3076923,63.4285714 Z"/><path d="M23,24 C25.208,24 27,22.208 27,20 L27,12 C27,9.792 25.208,8 23,8 C20.792,8 19,9.792 19,12 L19,20 C19,22.208 20.792,24 23,24 Z"/><path d="M39,24 C41.208,24 43,22.208 43,20 L43,4 C43,1.792 41.208,0 39,0 C36.792,0 35,1.792 35,4 L35,20 C35,22.208 36.792,24 39,24 Z"/><path d="M54,24 C56.212,24 58,22.208 58,20 L58,12 C58,9.792 56.212,8 54,8 C51.792,8 50,9.792 50,12 L50,20 C50,22.208 51.792,24 54,24 Z"/></g></g></g></svg>